<svg width="58" height="50" viewBox="0 0 58 50" fill="none" xmlns="http://www.w3.org/2000/svg">
<path d="M28.3755 3.71558C29.2039 3.71558 32.8918 4.41519 32.8918 7.43156C32.8918 11.807 26.1777 15.0298 23.4046 15.0298C21.4139 15.0298 20.5452 14.3704 20.5452 13.3381C20.5452 12.4722 21.7879 11.5604 22.5358 11.5604C22.7832 11.5604 22.9098 11.6866 22.9098 11.8472C22.9098 12.0937 22.4955 12.5066 22.4955 12.7131C22.4955 13.6191 23.7383 13.8715 24.4402 13.8715C28.7897 13.8715 31.4823 10.0752 31.4823 8.21719C31.4823 6.48536 29.8656 4.83381 26.1374 4.83381C19.8835 4.83381 11.4722 11.1934 11.4722 15.1961C11.4722 16.5151 12.3409 17.6735 13.296 18.3731C14.6192 19.3651 14.9127 20.0648 14.9127 21.0568C14.9127 21.9629 11.4319 24.2338 7.87057 26.4244C2.4049 29.7275 1.65696 32.5374 1.65696 34.2692C1.65696 37.0791 4.1424 39.5106 8.6185 39.5106C16.4891 39.5106 24.5668 33.0707 25.2744 32.0385C25.7289 31.3389 25.9763 31.2127 26.0626 31.2127C26.1489 31.2127 26.1892 31.293 26.1892 31.4192C26.1892 33.0707 20.1827 36.5802 15.8332 38.6848C12.853 40.1299 9.24561 40.9156 6.38621 40.9156C2.35887 40.9213 0 39.0232 0 35.8405C0 27.4164 13.296 23.7807 13.296 21.5557C13.296 21.2231 13.0888 20.8102 12.5078 20.3572C9.85547 18.2526 9.73465 16.928 9.73465 16.1481C9.73465 13.4586 17.8123 3.71558 28.3755 3.71558Z" fill="black"/>
<path d="M6.1683 4.20916C6.04173 4.20916 5.96118 4.083 5.96118 3.96257C5.96118 3.71598 6.4157 3.42352 6.4157 3.42352C6.4157 3.42352 10.6041 0 15.575 0C30.8214 0 24.3546 28.6555 32.4783 28.6555C37.1155 28.6555 47.391 16.5155 49.1342 14.7378C49.1342 14.7378 56.0958 6.43989 56.838 5.11521C56.838 5.11521 57.1716 4.53602 57.5859 4.53602C57.8333 4.53602 58.0001 4.74247 58.0001 4.86863C58.0001 5.15535 57.5859 5.44782 57.3788 5.6944C57.1314 6.02701 45.8203 21.6307 45.1587 22.6228C44.0828 24.194 29.1701 45.0448 29.1701 47.7688C29.1701 48.0555 29.3773 48.1415 29.5038 48.1415C29.711 48.1415 29.8778 48.0153 29.9986 47.9752H30.0389C30.1655 47.9752 30.3726 48.0153 30.3726 48.1816C30.3726 48.3078 30.292 48.5142 29.9584 48.8411C29.9584 48.8411 29.0493 49.9995 28.3417 49.9995C27.6398 49.9995 27.4326 49.254 27.4326 48.887C27.4326 48.7608 27.4326 48.6003 27.4729 48.4741C27.5995 47.9351 28.5085 45.3774 29.1701 44.2191C29.4578 43.766 31.7822 39.7175 34.6358 35.5886C38.364 30.1809 42.8804 24.4406 43.214 23.9876C43.214 23.9876 50.0087 14.8639 50.3827 14.2847C50.4633 14.1586 50.4633 14.1184 50.4633 14.0382C50.4633 13.998 50.4633 13.9579 50.423 13.9579C50.2159 13.9177 49.9685 14.5371 49.8016 14.7034C43.3291 21.2637 36.8278 29.9343 30.9422 29.9343C22.0763 29.9343 28.9112 1.23866 14.246 1.23866C11.4269 1.23866 8.61347 2.60348 6.74939 3.88229C6.66884 3.92243 6.42145 4.20916 6.1683 4.20916Z" fill="black"/>
</svg>
