<svg width="16" height="16" viewBox="0 0 16 16" fill="none" xmlns="http://www.w3.org/2000/svg">
<path fill-rule="evenodd" clip-rule="evenodd" d="M3.47255 1.66101C3.47255 2.56653 2.78307 3.29935 1.70484 3.29935C0.668622 3.29935 -0.0208562 2.56653 0.00048164 1.66101C-0.0208562 0.711479 0.668606 0 1.7255 0C2.78305 0 3.45188 0.711479 3.47255 1.66101ZM0.0871698 15.1411V4.59361H3.36518V15.1405H0.0871698V15.1411Z" fill="black"/>
<path fill-rule="evenodd" clip-rule="evenodd" d="M5.99257 7.95981C5.99257 6.64421 5.94923 5.52264 5.90588 4.59511H8.75314L8.9045 6.04008H8.96919C9.40062 5.37128 10.4788 4.3584 12.2259 4.3584C14.3823 4.3584 16 5.78203 16 8.88667V15.1426H12.722V9.29742C12.722 7.93781 12.2479 7.01095 11.0616 7.01095C10.1554 7.01095 9.61667 7.63641 9.40129 8.23987C9.3146 8.45591 9.27193 8.75731 9.27193 9.06004V15.1426H5.99389V7.95981H5.99257Z" fill="black"/>
</svg>
